<?xml version="1.0" encoding="utf-8"?>
<!-- Generator: Adobe Illustrator 25.2.0, SVG Export Plug-In . SVG Version: 6.00 Build 0)  -->
<svg version="1.1" id="layer-1" xmlns="http://www.w3.org/2000/svg" xmlns:xlink="http://www.w3.org/1999/xlink" x="0px" y="0px"
	 viewBox="0 0 288 288" style="enable-background:new 0 0 288 288;" xml:space="preserve">
<style type="text/css">
	.st0{fill:#F2C9BB;}
	.st1{fill:#D9A9C8;}
	.st2{fill:#8C7288;}
	.st3{fill:#A7C1D9;}
	.st4{fill:#181C26;}
</style>
<rect id="accent-11" x="190.8" y="53.8" transform="matrix(0.9443 0.329 -0.329 0.9443 58.0564 -56.4459)" class="st0" width="10" height="178.9"/>
<rect id="accent-22" x="202.5" y="50.7" transform="matrix(0.9443 0.329 -0.329 0.9443 59.4804 -60.4921)" class="st1" width="12" height="189.7"/>
<rect id="accent-33" x="217.3" y="52.9" transform="matrix(0.9443 0.329 -0.329 0.9443 61.0329 -65.2461)" class="st2" width="12" height="189.7"/>
<rect id="accent-1" x="106.9" y="53" transform="matrix(0.9697 -0.2442 0.2442 0.9697 -21.8173 30.4487)" class="st0" width="10" height="100.4"/>
<rect id="accent-2" x="117" y="57.1" transform="matrix(0.9776 -0.2103 0.2103 0.9776 -16.8051 27.9504)" class="st1" width="12" height="71.8"/>
<rect id="accent-3" x="126.6" y="53.8" transform="matrix(0.9584 -0.2853 0.2853 0.9584 -17.3063 41.1699)" class="st2" width="12" height="52.4"/>
<polygon id="background" class="st3" points="36.1,56.7 66,53.4 91.3,55 123.4,168.8 159.4,56.7 210.7,55 208.7,85.6 157.5,237.1 
	144,239.6 94.3,239.6 33.1,65.8 "/>
<path id="outline" class="st4" d="M159.8,51.4c4-2.1,12.2-3,24.5-2.6c2.8,0.1,7.9,0.3,15.3,0.7c6.2,0.4,10.7,0.5,13.5,0.5
	c1.8,0,6.1-0.1,12.9-0.4c6.7-0.3,11.9-0.4,15.7-0.4c12.9,0,20.2,1.5,22,4.4c1.2,2,0.9,5.7-0.8,11.2c-0.5,1.6-1.4,3.9-2.6,6.8
	c-1.2,3.1-2,5.2-2.3,6.2c-4.4,12.7-18.4,52.7-42,120c-0.6,1.8-1.8,5.8-3.6,11.9c-1.8,5.9-3.3,10.6-4.5,13.9
	c-3.9,11.1-7.8,17.5-11.8,19c-4.4,1.7-12.5,2.4-24.5,1.9c-2.6-0.1-7.4-0.3-14.5-0.7c-5.7-0.4-9.8-0.5-12.3-0.5h-26.3
	c-14.3,0-22.4-0.5-24.2-1.4c-3.5-1.8-7.1-8.5-10.9-20.1c-1.2-3.4-2.6-8-4.2-13.9c-1.6-5.6-2.7-9.2-3.3-10.8
	c-20-57-30.9-88.2-32.7-93.8c-0.8-2.5-2.2-6.4-4.1-11.9c-1.8-5.2-3.2-9.2-4.1-12c-2.1-6.5-3.5-12.5-4.2-18.2
	c-0.6-5.5-0.5-8.6,0.5-9.4c1.3-0.9,2.6-1.5,4-1.8h49.1c2.1,0,5.7-0.2,10.9-0.5c6.5-0.4,11.1-0.6,13.9-0.7
	c11.7-0.5,19.5,0.2,23.5,1.9c4.2,1.8,6.8,6.3,7.8,13.5c0.7,4.5,2.7,6.7,5.9,6.8c3.1,0.2,5.1-1.9,6-6.2
	C154,57.7,156.4,53.2,159.8,51.4z M157.3,71.1c-0.5,1.9-1.2,4.9-2.1,8.9c-0.8,3.6-1.4,6.2-1.8,7.7c-2.4,8.2-5.2,18.6-8.6,31.2
	c-3.6,12.9-6.4,23.1-8.5,30.8c-0.2,0.5-0.8,3.1-1.9,7.7c-0.9,3.8-1.8,6.9-2.6,9.3c-2.4,7.5-4.9,11.1-7.7,10.8
	c-2.1-0.3-4.3-4.2-6.6-11.8c-0.7-2.4-1.6-5.4-2.5-9.2c-0.9-4.1-1.5-6.4-1.6-6.8c-2.3-8.4-4.9-18.8-7.9-31.2
	c-3.1-13-5.7-23.3-7.7-30.8c-4.9-18.2-8.2-27.9-10-29.1c-1.4-0.9-8.9-1.4-22.7-1.4c-1.5,0-3.7,0-6.8-0.1c-3-0.1-5.3-0.1-6.8-0.1
	c-3.7,0-7,1.5-9.8,4.4C39,64,38,67,38.8,70.1c0.3,1.1,1.5,4.8,3.7,11.2c5.4,15.1,13.1,37.3,23.1,66.6c10.1,29.7,17.8,52,23.1,67
	c4.6,12.8,7.9,19.6,10,20.6c2.6,1.3,6.7,1.8,12.3,1.5c1.1-0.1,3.5-0.2,7.1-0.4c2.9-0.3,5.2-0.4,7-0.4c16.5,0,25.2-0.2,26.3-0.7
	c1.9-0.9,3.7-3.6,5.3-7.9c0.5-1.4,1.2-3.4,2.1-6c0.8-2.9,1.5-4.9,1.9-5.9c1.9-5.6,9.1-25.7,21.5-60.4c8.8-24.4,15.8-44.4,20.9-60
	c3.2-9.8,4.7-18.6,4.5-26.5c-0.2-7.9-2-11.9-5.3-12c-1.4,0-3.4,0.1-6.2,0.3c-2.8,0.1-4.9,0.1-6.3,0.1c-16,0-24.8,0.5-26.4,1.4
	C161.2,59.9,159.2,64.1,157.3,71.1z M104.7,70.2c-2.5-6.8-3.9-10.3-4.2-10.3c-0.4,0-1,0.4-1.8,1.1c-0.8,0.7,2,13,8.5,36.9
	c0.6,2.1,2.3,8.2,5.1,18.5c2.1,7.5,3.7,13.5,4.9,18.2c0.4,1.2,0.8,3.1,1.2,5.9c0.5,2.7,0.9,4.7,1.2,6c0.8,3.2,2.2,4.5,4.2,3.8
	c2-0.6,2.6-2.6,1.8-6c-0.4-1.5-0.9-3.5-1.6-6c-0.9-2.7-1.5-4.7-1.8-5.9c-6-23.2-9.2-35.6-9.6-37.2C110.3,86.5,107.6,78.2,104.7,70.2
	z M117.5,88.4c1.1,4.1,1.9,7.2,2.5,9.2c0.5,2.1,1.3,5.2,2.2,9.2c1,4.3,1.7,7.3,2.2,9.2c1.2,4.6,3.4,8,6.6,10.1c1.2,0.9,2.2,1.2,3,1
	c0.8-0.2,1.1-0.9,0.8-2.2c-0.2-1.3-0.6-2.9-1.2-4.9c-0.8-2.5-1.3-4-1.4-4.5c-0.8-3-2-7.8-3.6-14.4c-1.5-6.4-2.6-11.2-3.6-14.5
	c-1.8-7.2-4.3-13.9-7.4-20.1c-2.7-5.6-4.4-8-4.9-7.4c-1.7,1.6-1,8.4,2.2,20.2C115.5,81.3,116.4,84.3,117.5,88.4z M126.8,69.5
	c0.5,2.2,1.3,5,2.5,8.5c1.2,3.7,1.9,6,2.1,6.8c0.4,1.4,0.8,3.3,1.4,5.7c0.5,2.7,1,4.6,1.2,5.5c0.7,3.2,2.4,4.5,4.9,4
	c2.6-0.6,3.4-2.7,2.6-6.2c-0.3-1.5-0.9-3.7-1.8-6.4c-1-3.1-1.6-5.1-1.9-6.2c-0.2-0.6-0.5-2.6-1.1-5.9c-0.6-3.3-1.2-5.9-1.8-7.8
	c-1.7-6.6-3.8-9.6-6.3-9.2C125.7,59,125.1,62.7,126.8,69.5z M210.5,92.9c-2.1,6.4-3.3,10.1-3.7,11.1c-14.3,41-26.7,76.6-37.1,106.6
	c-0.4,1.1-1,2.8-2.1,5.2c-1,2.3-1.7,4-2.1,5.2c-1,2.9-0.6,4.8,1.1,5.6c1.8,0.8,3.2-0.2,4.2-3c0.5-1.2,1-2.9,1.6-5.2
	c0.6-2.4,1.1-4,1.4-4.9c4.5-12.6,10.9-30.8,19.3-54.7c8.8-24.8,15.2-42.8,19.1-54.1c5.5-15.4,8-22.6,7.7-21.7
	c1.8-5.4,3.2-10.6,4.1-15.7c0.8-4.4,1-6.6,0.7-6.7c-0.4-0.2-1.6,1.8-3.7,5.9c-2.5,4.6-4.7,9.8-6.7,15.3
	C213.5,84.5,212.2,88.3,210.5,92.9z M219.5,102.6c-4,11.4-10.3,29.8-18.9,55.1c-8,23.5-14.3,41.6-18.7,54.3c-0.5,1.2-1.2,3-2.2,5.3
	c-1.1,2.4-1.8,4.2-2.2,5.5c-1.1,3-0.5,5.1,1.9,6.3c2.3,1.2,4.1,0.3,5.3-2.6c0.6-1.4,1.3-3.2,1.9-5.6c0.8-3,1.3-4.7,1.5-5.2
	c9-26.2,24.7-71.2,47-135.2c0.4-1,1.1-2.7,2.2-5.2c1-2.4,1.7-4.2,2.2-5.5c0.8-2.6,1-5.3,0.4-7.9c-0.5-2.3-0.9-3.4-1.2-3.4
	c-0.8,0-1.5,0.2-1.9,0.7c-1.7,1.8-5,9.1-9.7,21.9C225.6,85.4,223.1,92.6,219.5,102.6z M194.5,217.3c-1.1,2.4-1.9,4.2-2.3,5.5
	c-1.1,3-0.4,5.1,2.1,6.3c2.4,1.2,4.1,0.3,5.1-2.6c0.5-1.3,1-3.1,1.6-5.5c0.6-2.6,1.1-4.3,1.5-5.3c18.9-54,34.8-99.3,47.7-135.9
	c0.1-0.3,0.7-1.9,1.9-4.8c1.1-2.6,2-4.8,2.6-6.6c0.5-1.5,0.3-2.4-0.5-2.6c-0.8-0.2-2,0.3-3.4,1.5c-3.8,3-6.7,7.4-8.6,13.3
	c-0.8,2.5-2.1,6.4-3.8,11.9c-1.6,5.1-2.9,8.9-3.8,11.5c-18.7,54-31.2,90-37.6,108C196.4,213.2,195.6,215,194.5,217.3z"/>
</svg>
